<mxfile modified="2020-11-15T07:15:27.878Z" host="app.diagrams.net" agent="5.0 (Windows NT 10.0; Win64; x64) AppleWebKit/537.36 (KHTML, like Gecko) Chrome/86.0.4240.198 Safari/537.36" etag="lkGTLHZAA1_WzzP7A2ko" version="13.9.8" type="github" pages="2">
  <diagram id="Ht1M8jgEwFfnCIfOTk4-" name="Page-1">
    <mxGraphModel dx="5677" dy="1835" grid="1" gridSize="10" guides="1" tooltips="1" connect="1" arrows="1" fold="1" page="1" pageScale="1" pageWidth="1169" pageHeight="827" math="0" shadow="0">
      <root>
        <mxCell id="0" />
        <mxCell id="1" parent="0" />
        <mxCell id="WujMJaz_23fABLTtDNPK-1" value="" style="group" vertex="1" connectable="0" parent="1">
          <mxGeometry x="-2820" y="-520" width="1740" height="990" as="geometry" />
        </mxCell>
        <mxCell id="rRAqTK6OiDAfvWlQABaf-2" value="" style="rounded=1;arcSize=10;fillColor=none;gradientColor=none;strokeWidth=2;glass=0;labelBorderColor=none;labelBackgroundColor=none;labelPosition=center;verticalLabelPosition=top;align=center;verticalAlign=bottom;sketch=0;snapToPoint=0;perimeter=rectanglePerimeter;fixDash=0;autosize=0;container=0;movableLabel=0;flipV=1;flipH=0;" vertex="1" parent="WujMJaz_23fABLTtDNPK-1">
          <mxGeometry x="725.0000000000001" y="285.12" width="1015.0000000000001" height="704.8800000000001" as="geometry" />
        </mxCell>
        <mxCell id="HLpHiaVIAuqE8mmPQBDN-1" value="" style="rounded=1;arcSize=10;dashed=0;fillColor=none;gradientColor=none;strokeWidth=2;" parent="WujMJaz_23fABLTtDNPK-1" vertex="1">
          <mxGeometry x="853.0440625" y="380.16" width="758.911875" height="406.692" as="geometry" />
        </mxCell>
        <mxCell id="xjnoJ65_-MGqVfazqy1Y-1" value="" style="rounded=1;arcSize=10;dashed=0;fillColor=none;gradientColor=none;strokeWidth=2;" parent="WujMJaz_23fABLTtDNPK-1" vertex="1">
          <mxGeometry x="1359.1484375" y="483.12000000000006" width="181.25000000000003" height="286.30800000000005" as="geometry" />
        </mxCell>
        <mxCell id="-92ZV4daiyxFBbVo8Tsq-17" value="" style="rounded=1;arcSize=10;fillColor=none;gradientColor=none;strokeWidth=2;glass=0;labelBorderColor=none;labelBackgroundColor=none;labelPosition=center;verticalLabelPosition=top;align=center;verticalAlign=bottom;sketch=0;snapToPoint=0;perimeter=rectanglePerimeter;fixDash=0;autosize=0;container=0;movableLabel=0;flipV=1;flipH=0;" parent="WujMJaz_23fABLTtDNPK-1" vertex="1">
          <mxGeometry x="725.0000000000001" y="285.12" width="1015.0000000000001" height="704.8800000000001" as="geometry" />
        </mxCell>
        <mxCell id="zYTiAQbcIrIkLb4M1rUa-2" value="&lt;font style=&quot;font-size: 17px&quot;&gt;Amazon EC2&lt;/font&gt;" style="outlineConnect=0;dashed=0;verticalLabelPosition=bottom;verticalAlign=top;align=center;html=1;shape=mxgraph.aws3.ec2;fillColor=#F58534;gradientColor=none;shadow=0;glass=0;labelBackgroundColor=none;sketch=0;strokeWidth=2;" parent="WujMJaz_23fABLTtDNPK-1" vertex="1">
          <mxGeometry x="1415.109375" y="451.44" width="69.328125" height="73.656" as="geometry" />
        </mxCell>
        <mxCell id="xjnoJ65_-MGqVfazqy1Y-3" value="" style="rounded=1;arcSize=10;dashed=0;fillColor=none;gradientColor=none;strokeWidth=2;" parent="WujMJaz_23fABLTtDNPK-1" vertex="1">
          <mxGeometry x="924.375" y="483.12000000000006" width="181.25000000000003" height="277.2" as="geometry" />
        </mxCell>
        <mxCell id="-92ZV4daiyxFBbVo8Tsq-2" value="" style="shape=image;html=1;verticalAlign=top;verticalLabelPosition=bottom;labelBackgroundColor=#ffffff;imageAspect=0;aspect=fixed;image=https://cdn1.iconfinder.com/data/icons/logotypes/32/github-128.png" parent="WujMJaz_23fABLTtDNPK-1" vertex="1">
          <mxGeometry y="502.524" width="101.376" height="101.376" as="geometry" />
        </mxCell>
        <mxCell id="-92ZV4daiyxFBbVo8Tsq-3" value="" style="shape=image;html=1;verticalAlign=top;verticalLabelPosition=bottom;labelBackgroundColor=#ffffff;imageAspect=0;aspect=fixed;image=https://cdn3.iconfinder.com/data/icons/popular-services-brands-vol-2/512/ruby-on-rails-128.png;flipV=0;" parent="WujMJaz_23fABLTtDNPK-1" vertex="1">
          <mxGeometry x="979.6562500000008" y="682.5060000000001" width="61.776" height="61.776" as="geometry" />
        </mxCell>
        <mxCell id="-92ZV4daiyxFBbVo8Tsq-5" value="" style="shape=image;imageAspect=0;aspect=fixed;verticalLabelPosition=bottom;verticalAlign=top;image=https://assets.brandfolder.com/po873r-7udt4w-b3x13z/v/3322314/view@2x.png?v=1592401197;" parent="WujMJaz_23fABLTtDNPK-1" vertex="1">
          <mxGeometry x="17.36374999999987" y="337.788" width="86.20128000000001" height="71.28" as="geometry" />
        </mxCell>
        <mxCell id="-92ZV4daiyxFBbVo8Tsq-9" value="" style="aspect=fixed;html=1;points=[];align=center;image;fontSize=12;image=img/lib/mscae/Docker.svg;" parent="WujMJaz_23fABLTtDNPK-1" vertex="1">
          <mxGeometry x="172.1875" y="717.9480000000001" width="95.61816" height="78.408" as="geometry" />
        </mxCell>
        <mxCell id="-92ZV4daiyxFBbVo8Tsq-13" value="" style="shape=image;imageAspect=0;aspect=fixed;verticalLabelPosition=bottom;verticalAlign=top;image=https://cdn.worldvectorlogo.com/logos/nginx-1.svg;flipV=0;" parent="WujMJaz_23fABLTtDNPK-1" vertex="1">
          <mxGeometry x="980.2000000000013" y="612.2160000000001" width="60.82560000000001" height="47.52" as="geometry" />
        </mxCell>
        <mxCell id="-92ZV4daiyxFBbVo8Tsq-18" value="" style="dashed=0;html=1;shape=mxgraph.aws3.virtual_private_cloud;fillColor=#F58536;gradientColor=none;dashed=0;" parent="WujMJaz_23fABLTtDNPK-1" vertex="1">
          <mxGeometry x="806.5625" y="264.132" width="83.375" height="47.52" as="geometry" />
        </mxCell>
        <mxCell id="-92ZV4daiyxFBbVo8Tsq-25" value="&lt;font style=&quot;font-size: 17px&quot;&gt;Private subnet&lt;/font&gt;" style="points=[[0,0],[0.25,0],[0.5,0],[0.75,0],[1,0],[1,0.25],[1,0.5],[1,0.75],[1,1],[0.75,1],[0.5,1],[0.25,1],[0,1],[0,0.75],[0,0.5],[0,0.25]];outlineConnect=0;gradientColor=none;html=1;whiteSpace=wrap;fontSize=12;fontStyle=0;shape=mxgraph.aws4.group;grIcon=mxgraph.aws4.group_security_group;grStroke=0;strokeColor=#147EBA;fillColor=#E6F2F8;verticalAlign=top;align=left;spacingLeft=30;fontColor=#147EBA;dashed=0;" parent="WujMJaz_23fABLTtDNPK-1" vertex="1">
          <mxGeometry x="1081.3828124999998" y="831.6" width="303.59375" height="118.8" as="geometry" />
        </mxCell>
        <mxCell id="RHOQ1kNHxqfsJFECoSCs-1" value="" style="shape=image;html=1;verticalAlign=top;verticalLabelPosition=bottom;labelBackgroundColor=#ffffff;imageAspect=0;aspect=fixed;image=https://cdn3.iconfinder.com/data/icons/social-media-2169/24/social_media_social_media_logo_docker-128.png;flipV=0;" parent="WujMJaz_23fABLTtDNPK-1" vertex="1">
          <mxGeometry x="985.0937500000001" y="554.4" width="52.272000000000006" height="52.272000000000006" as="geometry" />
        </mxCell>
        <mxCell id="jlEHLDl-ul9Q1PUK71Qo-1" value="" style="outlineConnect=0;fontColor=#232F3E;gradientColor=#F78E04;gradientDirection=north;fillColor=#D05C17;strokeColor=#ffffff;dashed=0;verticalLabelPosition=bottom;verticalAlign=top;align=center;html=1;fontSize=12;fontStyle=0;aspect=fixed;shape=mxgraph.aws4.resourceIcon;resIcon=mxgraph.aws4.ecs;shadow=0;glass=0;labelBackgroundColor=none;sketch=0;flipV=1;flipH=0;" parent="WujMJaz_23fABLTtDNPK-1" vertex="1">
          <mxGeometry x="695.0937500000001" y="521.1360000000001" width="61.776" height="61.776" as="geometry" />
        </mxCell>
        <mxCell id="jlEHLDl-ul9Q1PUK71Qo-3" value="" style="shape=image;html=1;verticalAlign=top;verticalLabelPosition=bottom;labelBackgroundColor=#ffffff;imageAspect=0;aspect=fixed;image=https://cdn3.iconfinder.com/data/icons/popular-services-brands-vol-2/512/ruby-on-rails-128.png" parent="WujMJaz_23fABLTtDNPK-1" vertex="1">
          <mxGeometry x="1413.750000000001" y="690.624" width="61.776" height="61.776" as="geometry" />
        </mxCell>
        <mxCell id="jlEHLDl-ul9Q1PUK71Qo-4" value="" style="shape=image;imageAspect=0;verticalLabelPosition=bottom;verticalAlign=top;image=https://cdn.worldvectorlogo.com/logos/nginx-1.svg;" parent="WujMJaz_23fABLTtDNPK-1" vertex="1">
          <mxGeometry x="1414.293750000001" y="621.9180000000001" width="69.6" height="47.52" as="geometry" />
        </mxCell>
        <mxCell id="jlEHLDl-ul9Q1PUK71Qo-2" value="" style="shape=image;html=1;verticalAlign=top;verticalLabelPosition=bottom;labelBackgroundColor=#ffffff;imageAspect=0;aspect=fixed;image=https://cdn3.iconfinder.com/data/icons/social-media-2169/24/social_media_social_media_logo_docker-128.png;flipH=0;" parent="WujMJaz_23fABLTtDNPK-1" vertex="1">
          <mxGeometry x="1419.1875000000005" y="554.4" width="52.272000000000006" height="52.272000000000006" as="geometry" />
        </mxCell>
        <mxCell id="lxxGfoW4XNc-P3xgCcky-7" value="" style="shape=image;html=1;verticalAlign=top;verticalLabelPosition=bottom;labelBackgroundColor=#ffffff;imageAspect=0;aspect=fixed;image=https://cdn3.iconfinder.com/data/icons/popular-services-brands-vol-2/512/ruby-on-rails-128.png;flipV=0;" parent="WujMJaz_23fABLTtDNPK-1" vertex="1">
          <mxGeometry x="126.87500000000001" y="828.8280000000001" width="61.776" height="61.776" as="geometry" />
        </mxCell>
        <mxCell id="lxxGfoW4XNc-P3xgCcky-8" value="" style="shape=image;imageAspect=0;aspect=fixed;verticalLabelPosition=bottom;verticalAlign=top;image=https://cdn.worldvectorlogo.com/logos/nginx-1.svg;flipV=0;" parent="WujMJaz_23fABLTtDNPK-1" vertex="1">
          <mxGeometry x="235.625" y="835.9560000000001" width="60.82560000000001" height="47.52" as="geometry" />
        </mxCell>
        <mxCell id="lxxGfoW4XNc-P3xgCcky-9" value="&lt;b&gt;&lt;font style=&quot;font-size: 24px&quot;&gt;ECR&lt;/font&gt;&lt;/b&gt;" style="outlineConnect=0;dashed=0;verticalLabelPosition=bottom;verticalAlign=top;align=center;html=1;shape=mxgraph.aws3.ecr_registry;fillColor=#F58534;gradientColor=none;shadow=0;glass=0;labelBackgroundColor=none;sketch=0;strokeWidth=2;" parent="WujMJaz_23fABLTtDNPK-1" vertex="1">
          <mxGeometry x="389.6875" y="530.64" width="81.5625" height="81.57600000000001" as="geometry" />
        </mxCell>
        <mxCell id="fsl5It5RxCy6fuQqxd1V-2" value="&lt;font style=&quot;font-size: 17px&quot;&gt;&lt;b&gt;internet&lt;/b&gt;&lt;/font&gt;" style="aspect=fixed;perimeter=ellipsePerimeter;html=1;align=center;shadow=0;dashed=0;fontColor=#4277BB;labelBackgroundColor=#ffffff;fontSize=12;spacingTop=3;image;image=img/lib/ibm/vpc/Internet.svg;glass=0;sketch=0;strokeWidth=2;fillColor=#ffffff;gradientColor=none;flipV=0;flipH=0;" parent="WujMJaz_23fABLTtDNPK-1" vertex="1">
          <mxGeometry x="1173.5937499999998" width="102.96000000000001" height="102.96000000000001" as="geometry" />
        </mxCell>
        <mxCell id="W6OuuhELGD2aynYvCGxZ-1" style="edgeStyle=none;rounded=0;orthogonalLoop=1;jettySize=auto;html=1;startSize=6;strokeWidth=4;" parent="WujMJaz_23fABLTtDNPK-1" source="fsl5It5RxCy6fuQqxd1V-4" edge="1">
          <mxGeometry relative="1" as="geometry">
            <mxPoint x="1193.53125" y="253.44000000000003" as="targetPoint" />
          </mxGeometry>
        </mxCell>
        <mxCell id="fsl5It5RxCy6fuQqxd1V-4" value="&lt;span style=&quot;text-align: left&quot;&gt;&lt;b&gt;&lt;font face=&quot;Tahoma&quot; style=&quot;font-size: 17px&quot;&gt;AWS Certificate Manager&lt;/font&gt;&lt;/b&gt;&lt;/span&gt;" style="outlineConnect=0;fontColor=#232F3E;gradientColor=none;fillColor=#277116;strokeColor=none;dashed=0;verticalLabelPosition=bottom;verticalAlign=top;align=center;html=1;fontSize=12;fontStyle=0;aspect=fixed;pointerEvents=1;shape=mxgraph.aws4.certificate_manager;shadow=0;glass=0;labelBackgroundColor=none;sketch=0;" parent="WujMJaz_23fABLTtDNPK-1" vertex="1">
          <mxGeometry x="870" y="118.8" width="55.843920000000004" height="73.83024" as="geometry" />
        </mxCell>
        <mxCell id="fsl5It5RxCy6fuQqxd1V-5" value="&lt;b&gt;&lt;font style=&quot;font-size: 17px&quot;&gt;Cloud Watch&lt;/font&gt;&lt;/b&gt;" style="outlineConnect=0;dashed=0;verticalLabelPosition=bottom;verticalAlign=top;align=center;html=1;shape=mxgraph.aws3.cloudwatch;fillColor=#759C3E;gradientColor=none;shadow=0;glass=0;labelBackgroundColor=none;sketch=0;strokeWidth=2;" parent="WujMJaz_23fABLTtDNPK-1" vertex="1">
          <mxGeometry x="624.0256249999999" y="118.8" width="74.765625" height="73.656" as="geometry" />
        </mxCell>
        <mxCell id="fsl5It5RxCy6fuQqxd1V-9" value="&lt;b style=&quot;font-size: 18px&quot;&gt;Amazon S3&lt;/b&gt;" style="outlineConnect=0;fontColor=#232F3E;gradientColor=#60A337;gradientDirection=north;fillColor=#277116;strokeColor=#ffffff;dashed=0;verticalLabelPosition=bottom;verticalAlign=top;align=center;html=1;fontSize=12;fontStyle=0;aspect=fixed;shape=mxgraph.aws4.resourceIcon;resIcon=mxgraph.aws4.s3;shadow=0;glass=0;labelBackgroundColor=none;sketch=0;" parent="WujMJaz_23fABLTtDNPK-1" vertex="1">
          <mxGeometry x="1567.8125" y="41.184000000000005" width="61.776" height="61.776" as="geometry" />
        </mxCell>
        <mxCell id="zYTiAQbcIrIkLb4M1rUa-1" value="&lt;font style=&quot;font-size: 17px&quot;&gt;Amazon EC2&lt;/font&gt;" style="outlineConnect=0;dashed=0;verticalLabelPosition=bottom;verticalAlign=top;align=center;html=1;shape=mxgraph.aws3.ec2;fillColor=#F58534;gradientColor=none;shadow=0;glass=0;labelBackgroundColor=none;sketch=0;strokeWidth=2;" parent="WujMJaz_23fABLTtDNPK-1" vertex="1">
          <mxGeometry x="972.40625" y="451.44" width="69.328125" height="73.656" as="geometry" />
        </mxCell>
        <mxCell id="Cbe6BfJtWzf-FZCNJZF6-3" value="&lt;b&gt;&lt;font style=&quot;font-size: 25px&quot;&gt;Cluster&lt;/font&gt;&lt;br&gt;&lt;/b&gt;" style="outlineConnect=0;dashed=0;verticalLabelPosition=bottom;verticalAlign=top;align=center;html=1;shape=mxgraph.aws3.emr_cluster;fillColor=#F58534;gradientColor=none;" parent="WujMJaz_23fABLTtDNPK-1" vertex="1">
          <mxGeometry x="894.994375" y="330.26400000000007" width="50.296875" height="49.896" as="geometry" />
        </mxCell>
        <mxCell id="-92ZV4daiyxFBbVo8Tsq-14" value="&lt;b&gt;&lt;font&gt;&lt;font style=&quot;font-size: 18px ; background-color: rgb(255 , 255 , 255)&quot; face=&quot;Verdana&quot;&gt;Route53&lt;/font&gt;&lt;br&gt;&lt;/font&gt;&lt;/b&gt;" style="outlineConnect=0;dashed=0;verticalLabelPosition=bottom;verticalAlign=top;align=center;html=1;shape=mxgraph.aws3.route_53;fillColor=#F58536;gradientColor=none;flipV=0;flipH=0;" parent="WujMJaz_23fABLTtDNPK-1" vertex="1">
          <mxGeometry x="1200.5546875000002" y="151.272" width="63.890625" height="67.716" as="geometry" />
        </mxCell>
        <mxCell id="Cbe6BfJtWzf-FZCNJZF6-4" style="edgeStyle=elbowEdgeStyle;rounded=0;orthogonalLoop=1;jettySize=auto;elbow=vertical;html=1;entryX=0.5;entryY=0;entryDx=0;entryDy=0;entryPerimeter=0;" parent="WujMJaz_23fABLTtDNPK-1" source="fsl5It5RxCy6fuQqxd1V-2" target="-92ZV4daiyxFBbVo8Tsq-14" edge="1">
          <mxGeometry relative="1" as="geometry" />
        </mxCell>
        <mxCell id="YPjosldQKg_hmIPU5Zje-1" value="" style="edgeStyle=none;rounded=0;orthogonalLoop=1;jettySize=auto;html=1;startSize=6;strokeWidth=4;" parent="WujMJaz_23fABLTtDNPK-1" source="fsl5It5RxCy6fuQqxd1V-2" target="-92ZV4daiyxFBbVo8Tsq-14" edge="1">
          <mxGeometry relative="1" as="geometry" />
        </mxCell>
        <mxCell id="jdtl5-6PLyKUC_BaZAGV-7" style="edgeStyle=none;rounded=0;orthogonalLoop=1;jettySize=auto;html=1;strokeWidth=4;" parent="WujMJaz_23fABLTtDNPK-1" source="bph49K7Mzzs8DdBQtOgR-1" edge="1">
          <mxGeometry relative="1" as="geometry">
            <mxPoint x="1051.25" y="459.36" as="targetPoint" />
          </mxGeometry>
        </mxCell>
        <mxCell id="jdtl5-6PLyKUC_BaZAGV-8" style="edgeStyle=none;rounded=0;orthogonalLoop=1;jettySize=auto;html=1;startSize=6;strokeWidth=4;" parent="WujMJaz_23fABLTtDNPK-1" source="bph49K7Mzzs8DdBQtOgR-1" edge="1">
          <mxGeometry relative="1" as="geometry">
            <mxPoint x="1413.75" y="459.36" as="targetPoint" />
          </mxGeometry>
        </mxCell>
        <mxCell id="bph49K7Mzzs8DdBQtOgR-1" value="" style="outlineConnect=0;dashed=0;verticalLabelPosition=bottom;verticalAlign=top;align=center;html=1;shape=mxgraph.aws3.elastic_load_balancing;fillColor=#F58534;gradientColor=none;shadow=0;glass=0;labelBackgroundColor=none;sketch=0;strokeWidth=2;flipV=0;flipH=0;" parent="WujMJaz_23fABLTtDNPK-1" vertex="1">
          <mxGeometry x="1195.1171875000002" y="256.60800000000006" width="69.328125" height="73.656" as="geometry" />
        </mxCell>
        <mxCell id="Cbe6BfJtWzf-FZCNJZF6-5" style="edgeStyle=elbowEdgeStyle;rounded=0;orthogonalLoop=1;jettySize=auto;elbow=vertical;html=1;exitX=0.5;exitY=1;exitDx=0;exitDy=0;exitPerimeter=0;" parent="WujMJaz_23fABLTtDNPK-1" source="-92ZV4daiyxFBbVo8Tsq-14" target="bph49K7Mzzs8DdBQtOgR-1" edge="1">
          <mxGeometry relative="1" as="geometry" />
        </mxCell>
        <mxCell id="bW-zehHCRXH_9ji97vA4-8" value="" style="endArrow=none;html=1;strokeWidth=1;" parent="WujMJaz_23fABLTtDNPK-1" target="-92ZV4daiyxFBbVo8Tsq-25" edge="1">
          <mxGeometry width="50" height="50" relative="1" as="geometry">
            <mxPoint x="1395.6250000000002" y="768.2400000000001" as="sourcePoint" />
            <mxPoint x="1341.2500000000002" y="1156.3200000000002" as="targetPoint" />
          </mxGeometry>
        </mxCell>
        <mxCell id="bW-zehHCRXH_9ji97vA4-10" value="" style="endArrow=none;html=1;strokeWidth=2;" parent="WujMJaz_23fABLTtDNPK-1" target="-92ZV4daiyxFBbVo8Tsq-25" edge="1">
          <mxGeometry width="50" height="50" relative="1" as="geometry">
            <mxPoint x="1078.4375" y="760.32" as="sourcePoint" />
            <mxPoint x="951.5625" y="831.6" as="targetPoint" />
          </mxGeometry>
        </mxCell>
        <mxCell id="QWPBQDm2NbdyVa30qjrv-3" value="" style="shape=image;imageAspect=0;aspect=fixed;verticalLabelPosition=bottom;verticalAlign=top;image=data:image/png,iVBORw0KGgoAAAANSUhEUgAAALAAAAB3CAYAAACjWspSAAAAGXRFWHRTb2Z0d2FyZQBBZG9iZSBJbWFnZVJlYWR5ccllPAAADlNJREFUeNrsXb1647gVxThTpEqULt3QXbqh6xSmunSWHyCfpCewVbhIJatK4UL2E4j6UqWyXG5lukm7nCcw9wlGu1W6BFe8HEEUAQIgSJH0Pd/HHa8tEfw5ODj34o8xAoFAIBAIBGN8okfQAdwtPf7fOT9G/BjwI8bjhT3MNkRgQtvJ+zMStwhbfjzx45GTefvRHs8ZMaT1mAvkTfAQMcDPvHOy3xKBCW1DgP9uuMKe7w7G4AhRfUUiLzmJX/kxIAtBaIuF+I7kBIswy/0Nfg+qe5OzGOCPFwcEf5hFRGDCKQj8jMHbdqe8RT43JfIKP6cCEBuIvObniclCEJrAU87rHgNI/TC75j9NS87lo2L/zEkPnnlCCkxoQoVfBS885WQNS7IWHpI1sxVf8PtewTcSPGdEBCbURWCP7VNpYCGGVhbgbumjXx6x47Tc4843dywVRwTuDolBQV8FLzu0Jps8+OucGv+OmNER/OenhP31b5/QCvyZH7/nv/vJ8lz/5UfEz/dvtBV/EXz2hP9+YH1uUmCCgR8eFqnl3/+5HqAH3qn1v/4x3mqo+yrnkaupPGUhCBJcs31+d6743AotxzsntKc8Y1oJLhh0lhxmLN7RNxOBCY6QKuIC/y8oIhgqbkb0QQnR9+dNU3FiZ8lgVwnuliMiMMElQuHncdEHOIljgYyeQQV53FmHvcoDiZ/bmjMmAndXhbM0mlQdOYlDJOKb4fmjHIlTS9JCEhOBu4v1D3VV+9RrTuR7i0oSS0gcEIEJLrApsxGowlEFpS8i8XObAjsicHdtRMLSgTlKG+GgnFjiiQdEYEJTNsIFia+F33g7EhOBCQ5sRKaMNzUrPqi9mGIL2jADhHriuo67JXRYZNmBc7QWdZb3nLMsF6ccW0wK3H0shJ/nDZQ3PcpMkIUgVAzmQvy/Se1prjQHLQ6c93mZ90RgQhXMBFWsP82VrkUhpvFucMwyEZhQWRWz8QuDBioNE8qcE4EJVVVxJhCqbhVOcv57corcMBG4X/gi/NxEZuAxF9BNiMCEKgh+kLeJgehpGYdemAhMsELafGe2Yd1gyWJZXtODfYjA/VNfllPFulU4Yofrtc2JwAQbXOG/Ue29ccdYHFSkBlNqROD+ILMPb42XnC60chIVJgL3j8CnGpfwJPzcWEqNCNyfAC7DqabBh7myb4nABFP1PR3SlJqowjdNqDARuG+QLQsFZEoXRakTYsfGoAkVJgL3z04Ekr+sMENQ5/Sj446NmlWYCNwPlC0dBUqYEXdc87WIKbXaVZgI3A/bEOdIk4eY1hrVmqdNc9CNqTARuH8q7OfUt2gt4LrHLDw1pcJE4P4gU+FLjQxFvXnaNJAMD1qAmlb1IQL3B1kPXJAjp0joqMEMwYIdr+rzfTf9yGHlIQL3B5sDhS32xC+CMt7UrMLghWe532YzN77vZlM78OJE4H4FcnGBx/VzNmORI1Od1wSV5RyJHB/ZmHT94VWVikQE7hey4MmTzBROcrOYb2sfOQblwZKtD7MLgcxJAZGt8tO0sEnfcLgFQXygwA+zT/gZIG226xEMvxye4Dp9bAFE4oY7ghvMJiEF7h/EhUf8Qo+cqvBUCPomjV8lWJ50RXhxywS4jleTZQGIwP3zwkDOYa6ZTthhD1k2izkj8fJkq02m13EuVDAfSaxVqchC9NtOBEiSSPEZIMpqR6BUEU95vZNdZdpnTo43OCcCExQknuEeGae8Fg9JPPrhix9mUyIwoYw4IyTOdSt2st9XKqUSE4EJ+cxARuJtQ2VmywEE+JuvgoUQNywv3OScCEwoItSSpRt/JzXaBCDsDdOfTVLo0YnABBmJM0+cOD63aA1kAAsDLQCU/Q3Jm5CFILShcoDyilObsj3v4HhRZkyIwISWkFjsLQRYb1NAHRmEU0BckJuxCvsxkwITTqXCRV54Y+q7icCEU/th2PUovzDLEyfxPRGY0AUSeyyb8n+IdHPFEjUmAhPaQmSY4jQvUOOhKsAjAhPaROJsrt6NQGQliYnAhC4QWUpiInDN+O3pTwfe7g8336NTlItIePlJx4g8RzLHSOKtPoH3gztUmDrpbkzTKqplj9ZFgzlaSFjIZ8Jq6UULiojeDogMs4Q3nFRbR4QdYzDklXw8Kzu0KZuXBZwoGsMQ8/PNasxWJHkSfy75alAQHeYBL8rFGFKdgR1hi4kbYDTtaXx8gM8NjhX/LtzXwkYdscIsNcvNv9cl//4jlm1CZF+DF+4A3ct3y3Mk8Yql05B2ONN40GUYO6hhHmvDGrf25AUCvRqSSAS0Pu/8PPcGZQ748Ywv1atw+dA8/8zP1e7nD6qbTj5NxOlPZQT+qlUbq0/NHmmqRhvJu2INrUYukhcrjKulUuH9vbaexCmRD2Ytu1Bg5uBBjlkHwV/4LSvfnTJBzwk2YYM/J7YWSSCvr1luxPT2zRh0hsQCPmvUTB1cWvtgE/sAQWUbprvsiaRa2QaucybLOuD3AyHg22h64FXJ81pgcJYUlDfCa/YUJIbzX3SFwGeOCDyqMC3bRL0HLXp2E8X17FI+qpQZBE38ANLChMVsxRqdgG2kyGxc8PPdF1UELC9EcqqU3uflTPpC4LqIaGsf2kTgK8Xfrk2ieiSXzueXCvJChYk1y5qy/UqVRZh3n8Dme95eNZB9aJM/kz2fTR2dBaiKshZxoUPeHMQVfI5aXlT7XirwxqGNKHpIEes2vtV0Xtmq6tC7Zhx/YCULux5Yf7ZQuxeFXRgxs86GseT8nkRtLiUtRSCN6k16CdPeQK/Q06ZLIOngSw3qq2qpqmzsDTvN3xq2MJ0h8ECRnoklD/RKm8By+7DB83gG9zFXeMNHw/N4kshelygjTriZi+5hzfhibXtSsB38WhPJPUNHiW9hTVpvIRLFQzOxESOJ0iVGlSqdxbp15Ms9RVahqHLIrnHp+D1dyiqoA4JFHYk5jAlc/NCOt1GyzUaMFWoSGz7QjbQZ1K1Q6iU9Y8MXP8FOjroDRhfq+M2iQndagTMSJ9aqp7YPgF8Nr+jFQYXypDakuFV4KTkfDJR5xg6EKv53wNT55qqILZS/4wSuno2wsQ8i+fMVauPARvgmTSx2CsQa9/lesWNA1TL86oADCeswzgybrUQzeChTvasSokQWSrmpGE1/tWhiVblU0RPDkMl3ySDzKqgcKHZqgLsDBU4E1YutbESqzoHLaLqkSR9oLprhmQY5GEANNYkE54fBMqYDZgLL5t8F/L4R2IWNGBVWDP1BOr7El1e1EbLzRiUKlpE4NiAkjL9dVfXHDWDQTQLrb7JhEzxdaVSE2PKhRlY2Qt5trkVKIDE/YJDMzKBZnzDDQewEfQXWq3mmOdhUlUel9sF+ceUXafOtrpS+YYWQERk6TWBkmW7nyW5IJvpjn+hYv4V4q2gjqtoHwBcLSwNQ9e1fGtxvGYm3OLHx3KACZP64bSSOukpgE+9jYiOuHDwkT9EibJUVqmYFzkf3/Bga+GObGREB++A4qxx9qoOnSw378OKYPCob4RXYGo/JB/C4SFNF6I91U27PZAyay0KU2wi1Am4NRnlVvRbZNQQWLYsNkUN2uKGftIXJdXyoKvIfq14XjnQzsYy9JPCbVFH2OdgrQ7LZNZtqGzE28L+uK1bmj2FNg7Dko1V7D91YMgcdJW0j8NbiZV9Z2Ie6KpRfEFgGkpahtk4CnNITa1bSuGYCmw5i6gSBL41uqDx4srEPVR6eno1IU2teE+pbgEWJF/6h2grhGJRYAB1cqvz7R7EQKjWVjY8tezj2A1XSQUGxRvPciP+VkMOkksSGvt6FJduwDsAlgTc6iuKEJHo9hWuNFzZuKLCsSxxM/HJRAKdagPDlYxE4tRGRI8KXYVDh/INdBSgfk1wrSpr+xKC1CiqMcrup6f10UoFNau2m9r141TbCVzS9TSnPRNcy4IAhlY2YW1SgW4V9CB3P6WucwLbR7cYx0atCZiM8iX1ITOyD7UB17G2bGz6fpxIVXjkqf1sSYHaCwHbD6NSqZ0p0FykcWdM7llTStSF5s4Hqt7pDI/F7ryr7gJ0e+aAvZOrZExOcwuRpKO+r4h0/dWmQ++cazrkuUfBI0z6oPuNr+W3I5d4tE3acKpO95NDgPufCuSDLAnPg4JrehGsTlx8IsOJ4JedVrZE2LSH/LmWJC2a/5QivUz50e99XePewrtqrYTZmKLQKy5yAfcNrhpWHIhx6Cmm/WTYb25TAuuq6rNk+mLQQcD06M4S1F0FRLPMU4GG7ttijKr2GL/FR434mrHzZ16J3e+3gvdgGlAlalyVeyxorJJxvy+87ZvtNX7QXuC7KNOjYiKRF0a1uf/7a8GW77qUKdfaXwM+ENTyn6SkDN+xmj7Dl/UVY7yJBIt8Wtcp1bfa9kb54FxvCuPHBeVsTGTzsWBhhVvV+4KVcY/eybvlTpje6zQTZNCePtQtZXHVTJDJ1EXjtQOXcIG01yki2sFQNUM1zJNPG4sVAueeGvXJiUHeO53AlCmA73ltI5Ce0DaFuEDesSBoInoYVMwux4joSC7J40tbCQH0VZAqFVdd9VjzGAO7pFwyWKlsQbPIhsLnHIAia2i+Ke33DaxgzdRf0BLMaISvePWnG6pvwKc4rDFEYEszOJPyaDiYIfIyNDu+W/1P89fwEtubkwN67JSvP+S8qZiZqxdkHIO9EaR0+IHmzjIbGTBHT1T0bx6eekxeauXdJcwcB5QUjiBvW3BZkJsI2X/tZj8kLTaOsx2kX+RN19166YCZ13Hby9kOB00VJ0gmYqeL6GKSorMOwauDWc0UeYdAUE4FPG6AVYdqFTcMJFMQV2QYib8/w+YPcZ4zkjemVE4HbBkh0jxTEfSLV7S/6kUbbB2+BQNz4o+Z4CQRCR/B/AQYAVK1c2ILBw1kAAAAASUVORK5CYII=;" vertex="1" parent="WujMJaz_23fABLTtDNPK-1">
          <mxGeometry x="150.82718749999987" y="900.1080000000002" width="132.95304000000002" height="89.89200000000001" as="geometry" />
        </mxCell>
        <mxCell id="rRAqTK6OiDAfvWlQABaf-3" value="" style="shape=image;html=1;verticalAlign=top;verticalLabelPosition=bottom;labelBackgroundColor=#ffffff;imageAspect=0;aspect=fixed;image=https://cdn3.iconfinder.com/data/icons/social-media-2169/24/social_media_social_media_logo_docker-128.png;flipV=0;" vertex="1" parent="WujMJaz_23fABLTtDNPK-1">
          <mxGeometry x="985.093750000001" y="554.4" width="52.272000000000006" height="52.272000000000006" as="geometry" />
        </mxCell>
        <mxCell id="rRAqTK6OiDAfvWlQABaf-5" value="&lt;b&gt;&lt;font style=&quot;font-size: 18px&quot; face=&quot;Tahoma&quot;&gt;RDS&lt;/font&gt;&lt;/b&gt;" style="outlineConnect=0;dashed=0;verticalLabelPosition=bottom;verticalAlign=top;align=center;html=1;shape=mxgraph.aws3.rds;fillColor=#2E73B8;gradientColor=none;" vertex="1" parent="WujMJaz_23fABLTtDNPK-1">
          <mxGeometry x="1195.1171874999998" y="863.2800000000001" width="65.25" height="64.15200000000002" as="geometry" />
        </mxCell>
      </root>
    </mxGraphModel>
  </diagram>
  <diagram id="z92bab9wf8--5bxln02p" name="Page-2">
    <mxGraphModel dx="1116" dy="134" grid="1" gridSize="10" guides="1" tooltips="1" connect="1" arrows="1" fold="1" page="1" pageScale="1" pageWidth="827" pageHeight="1169" math="0" shadow="0">
      <root>
        <mxCell id="-ivl8A8YhL6A30Lmzu8i-0" />
        <mxCell id="-ivl8A8YhL6A30Lmzu8i-1" parent="-ivl8A8YhL6A30Lmzu8i-0" />
        <mxCell id="-ivl8A8YhL6A30Lmzu8i-2" value="" style="shape=image;imageAspect=0;aspect=fixed;verticalLabelPosition=bottom;verticalAlign=top;image=https://qiita-user-contents.imgix.net/https%3A%2F%2Fqiita-image-store.s3.ap-northeast-1.amazonaws.com%2F0%2F303093%2Fb6990f1d-9b29-da5c-aa14-e25234d63c39.png?ixlib=rb-1.2.2&amp;auto=format&amp;gif-q=60&amp;q=75&amp;w=1400&amp;fit=max&amp;s=59c13ddfa68b8c05df4af0c0118b09a4;" parent="-ivl8A8YhL6A30Lmzu8i-1" vertex="1">
          <mxGeometry x="40" y="30" width="335.89" height="270" as="geometry" />
        </mxCell>
        <mxCell id="pZJ2bOHo9bR8bqc-_nNZ-0" value="" style="shape=image;imageAspect=0;aspect=fixed;verticalLabelPosition=bottom;verticalAlign=top;image=https://engineers.weddingpark.co.jp/wp-content/uploads/2018/06/%E3%82%B9%E3%82%AF%E3%83%AA%E3%83%BC%E3%83%B3%E3%82%B7%E3%83%A7%E3%83%83%E3%83%88-2018-06-19-10.09.42.png;" parent="-ivl8A8YhL6A30Lmzu8i-1" vertex="1">
          <mxGeometry x="420" y="20" width="470" height="312.73" as="geometry" />
        </mxCell>
        <mxCell id="pZJ2bOHo9bR8bqc-_nNZ-1" value="" style="shape=image;imageAspect=0;aspect=fixed;verticalLabelPosition=bottom;verticalAlign=top;image=https://user-images.githubusercontent.com/48108735/62868041-ae8c3100-bd4f-11e9-87a3-9af880a5c2c2.png;" parent="-ivl8A8YhL6A30Lmzu8i-1" vertex="1">
          <mxGeometry x="-10" y="340" width="520" height="403" as="geometry" />
        </mxCell>
        <mxCell id="ylb_CQy5ygpK4mYqSWBx-0" value="" style="shape=image;imageAspect=0;aspect=fixed;verticalLabelPosition=bottom;verticalAlign=top;image=https://qiita-user-contents.imgix.net/https%3A%2F%2Fqiita-image-store.s3.ap-northeast-1.amazonaws.com%2F0%2F131949%2F0252749a-67e6-6e53-02c7-0fe56e9b1c33.png?ixlib=rb-1.2.2&amp;auto=format&amp;gif-q=60&amp;q=75&amp;w=1400&amp;fit=max&amp;s=2706d86f859f19166c8e6d1f0c0627f7;" parent="-ivl8A8YhL6A30Lmzu8i-1" vertex="1">
          <mxGeometry x="510" y="400" width="395.89" height="223.07" as="geometry" />
        </mxCell>
      </root>
    </mxGraphModel>
  </diagram>
</mxfile>
